<?xml version="1.0" standalone="no"?><!DOCTYPE svg PUBLIC "-//W3C//DTD SVG 1.1//EN" "http://www.w3.org/Graphics/SVG/1.1/DTD/svg11.dtd"><svg t="1688714626428" class="icon" viewBox="0 0 1024 1024" version="1.1" xmlns="http://www.w3.org/2000/svg" p-id="3576" xmlns:xlink="http://www.w3.org/1999/xlink" width="256" height="256"><path d="M802.12 121.318H221.88L20.002 451.68 512 1004l492-552.32z" fill="#FFAC8C" p-id="3577"></path><path d="M20 451.68l492.568 474.256L1004 451.68 512 1004z" fill="#FF8354" p-id="3578"></path><path d="M826.564 161.318l-24.444-40H221.88l-24.444 40z" fill="#FFCDBA" p-id="3579"></path><path d="M301.594 451.68h420.812L512 121.318z" fill="#FFCDBA" p-id="3580"></path><path d="M486.524 161.318h50.952l-25.476-40z" fill="#FFE9E0" p-id="3581"></path><path d="M1004 451.68H722.404L512 1004z" fill="#FF8354" p-id="3582"></path><path d="M558.696 881.42L512 1004l492-552.32zM301.594 451.68H20L512 1004z" fill="#E0734A" p-id="3583"></path><path d="M465.302 881.42L512 1004 20 451.68z" fill="#C96743" p-id="3584"></path><path d="M145.574 261.562c-13.784 0-24.956-11.174-24.956-24.956 0-13.28-10.022-24.878-23.276-25.736-14.524-0.94-26.596 10.56-26.596 24.88v0.856c0 13.782-11.174 24.956-24.956 24.956-13.28 0-24.878 10.022-25.736 23.276-0.94 14.524 10.56 26.596 24.88 26.596h0.856c13.782 0 24.956 11.174 24.956 24.956 0 13.282 10.022 24.878 23.276 25.736 14.524 0.94 26.596-10.562 26.596-24.882v-0.856c0-13.782 11.174-24.956 24.956-24.956h0.856c14.32 0 25.822-12.074 24.882-26.596-0.86-13.252-12.456-23.274-25.738-23.274zM982.662 61.986c-11.404 0-20.648-9.244-20.648-20.648 0-10.988-8.292-20.582-19.258-21.294-12.016-0.778-22.006 8.736-22.006 20.586v0.708c0 11.404-9.244 20.648-20.648 20.648-10.988 0-20.582 8.292-21.294 19.258-0.778 12.016 8.736 22.006 20.586 22.006h0.708c11.404 0 20.648 9.244 20.648 20.648 0 10.988 8.292 20.584 19.258 21.294 12.016 0.778 22.006-8.738 22.006-20.586v-0.708c0-11.404 9.244-20.648 20.648-20.648h0.708c11.848 0 21.364-9.99 20.586-22.006-0.712-10.966-10.306-19.258-21.294-19.258z" fill="#69EBFC" p-id="3585"></path><path d="M221.88 121.318l79.714 330.362L512 121.318zM802.688 121.318L722.974 451.68 512.568 121.318z" fill="#FF8354" p-id="3586"></path><path d="M512.568 121.318l25.476 40h254.992l9.492-39.334-0.408-0.666zM486.524 161.318l25.476-40H221.88l9.652 40z" fill="#FFAC8C" p-id="3587"></path></svg>