<?xml version="1.0" standalone="no"?><!DOCTYPE svg PUBLIC "-//W3C//DTD SVG 1.1//EN" "http://www.w3.org/Graphics/SVG/1.1/DTD/svg11.dtd"><svg t="1688714646319" class="icon" viewBox="0 0 1024 1024" version="1.1" xmlns="http://www.w3.org/2000/svg" p-id="3740" xmlns:xlink="http://www.w3.org/1999/xlink" width="256" height="256"><path d="M286.56 96.924c159.524-1.654 224.406 106 224.406 106s62.734-104.346 222.258-106c159.524-1.654 280.03 131.902 281.32 256.324 1.29 124.422-17.144 213.548-246.77 409.044-80.636 68.65-148.41 117.42-192.81 147.26a103.08 103.08 0 0 1-113.334 1.174c-45.01-28.912-113.78-76.266-195.82-143.232C32.18 576.8 11.904 488.074 10.614 363.654 9.324 239.232 127.038 98.578 286.56 96.924z" fill="#FF8354" p-id="3741"></path><path d="M893.51 584.188l28.14 28.14c-35.96 43.06-85.58 91.8-153.88 149.96-80.64 68.66-148.4 117.42-192.8 147.26a103.062 103.062 0 0 1-113.34 1.18c-45-28.92-113.78-76.26-195.82-143.24-233.64-190.68-253.9-279.42-255.2-403.84-0.08-7.82 0.32-15.72 1.16-23.66 6.32 106.82 43.74 195.86 254.04 367.5 82.04 66.98 150.82 114.32 195.82 143.24a103.062 103.062 0 0 0 113.34-1.18c44.4-29.84 112.16-78.6 192.8-147.26 52-44.28 93.18-83.1 125.74-118.1zM999.75 479.188l-17.3-17.28c21.4-43.26 29.04-82.56 31.32-124.06 0.44 5.14 0.72 10.28 0.78 15.4 0.46 44.32-1.58 84.158-14.8 125.94z" fill="#E0734A" p-id="3742"></path><path d="M511.47 202.126l27.72 27.74c-19.42 18.42-28.22 33.06-28.22 33.06s-64.88-107.66-224.4-106c-149.48 1.54-262.26 125.14-274.8 243.06-0.7-11.84-1.02-23.9-1.16-36.34-1.28-124.42 116.42-265.06 275.96-266.72 159.52-1.66 224.4 106 224.4 106s0.16-0.278 0.5-0.8zM1013.77 397.846c-10.52-119.8-127.6-242.5-280.54-240.92-18.4 0.2-35.5 1.76-51.38 4.38l-48.02-48.02c27.78-9.52 60.74-15.96 99.4-16.36 159.52-1.66 280.02 131.9 281.32 256.32 0.16 15.322 0.02 30.08-0.78 44.6z" fill="#FFAC8C" p-id="3743"></path><path d="M978.35 529.966c1.34-2.56 2.66-5.1 3.92-7.64-1.24 2.54-2.56 5.08-3.92 7.64zM982.45 521.946c2.62-5.32 5.04-10.58 7.28-15.8-2.22 5.22-4.64 10.48-7.28 15.8z" fill="#E0734A" p-id="3744"></path><path d="M999.75 479.188c-0.4 1.26-0.82 2.54-1.24 3.82-0.4 1.24-0.84 2.48-1.26 3.74-0.02 0.02-0.02 0.04-0.04 0.08a293.424 293.424 0 0 1-2.78 7.68c-0.04 0.1-0.08 0.22-0.12 0.32l-1.38 3.54c-1.02 2.6-2.08 5.18-3.2 7.78-2.24 5.22-4.66 10.48-7.28 15.8-0.06 0.12-0.12 0.26-0.18 0.38-1.26 2.54-2.58 5.08-3.92 7.64-0.7 1.34-1.44 2.7-2.18 4.06a299.212 299.212 0 0 1-4.58 8.18 432 432 0 0 1-21 32.66c-0.68 0.98-1.38 1.96-2.08 2.94-1.5 2.08-3.02 4.2-4.6 6.32l-2.34 3.12c-0.76 1.04-1.56 2.1-2.38 3.16-1.6 2.1-3.22 4.2-4.9 6.34-0.84 1.06-1.68 2.14-2.52 3.2-1.7 2.14-3.44 4.3-5.22 6.48-0.88 1.08-1.78 2.16-2.68 3.26-0.72 0.88-1.46 1.76-2.22 2.64l-28.14-28.14c42.9-46.12 70.86-85.62 88.94-122.28l17.3 17.28z" fill="#4DAEBA" p-id="3745"></path><path d="M921.65 612.326c0.76-0.88 1.5-1.76 2.22-2.64-0.72 0.88-1.46 1.76-2.2 2.66l-0.02-0.02z" fill="#54BFCC" p-id="3746"></path><path d="M681.85 161.306c-70.2 11.5-116.24 43.5-142.66 68.56l-27.72-27.74c0.92-1.44 3.18-4.82 6.86-9.5 0.52-0.66 1.06-1.34 1.64-2.06 0.56-0.7 1.14-1.42 1.78-2.16 0.98-1.18 2.02-2.4 3.14-3.68 1.1-1.28 2.28-2.6 3.56-3.96 0.62-0.7 1.28-1.38 1.94-2.08 3.88-4.12 8.4-8.58 13.58-13.22 0.62-0.56 1.26-1.12 1.9-1.68a236.206 236.206 0 0 1 16.4-13.22c2.22-1.66 4.54-3.3 6.94-4.94 0.96-0.66 1.92-1.32 2.92-1.98 1.62-1.08 3.26-2.16 4.96-3.24 0.9-0.56 1.8-1.14 2.72-1.68 2.34-1.46 4.72-2.88 7.18-4.28 0.94-0.54 1.88-1.08 2.84-1.6 4.96-2.78 10.18-5.48 15.66-8.06 1.1-0.52 2.2-1.04 3.32-1.54 1.12-0.52 2.24-1.02 3.38-1.52 2.28-1 4.6-1.98 6.96-2.94 0.9-0.38 1.82-0.74 2.74-1.1 2.68-1.06 5.4-2.08 8.18-3.08 1.1-0.4 2.2-0.78 3.32-1.16 0.14-0.06 0.3-0.1 0.44-0.16l48.02 48.02z" fill="#5ED4E3" p-id="3747"></path><path d="M521.75 188.406c0.96-1.16 2-2.4 3.14-3.68-1.12 1.282-2.16 2.502-3.14 3.68zM982.45 461.906c-18.08 36.66-46.04 76.16-88.94 122.28l-354.32-354.32c26.42-25.06 72.46-57.06 142.66-68.56l300.6 300.6z" fill="#54BFCC" p-id="3748"></path><path d="M835.608 396.16c16.842 6.824 34.844 11.57 52.348 11.57 62.32 0 60.172-92.656 60.172-92.656s2.148-92.656-60.172-92.656c-62.322 0-130.978 60.146-130.978 60.146h-0.002s-68.656-60.146-130.978-60.146c-62.32 0-60.172 92.656-60.172 92.656S563.68 407.73 626 407.73c15.754 0 31.91-3.85 47.262-9.594-47.19 61.718-112.548 114.146-112.548 114.146l66.578 10.504 11.13 51.404c79.846-65.756 107.342-160.956 116.76-214.95 9.42 53.994 36.914 149.194 116.76 214.95l11.13-51.404 66.578-10.504c0.002 0-66.752-53.552-114.042-116.122z" fill="#5ED4E3" p-id="3749"></path><path d="M756.978 315.074m-48.966 0a48.966 48.966 0 1 0 97.932 0 48.966 48.966 0 1 0-97.932 0Z" fill="#69EBFC" p-id="3750"></path></svg>