<?xml version="1.0" standalone="no"?><!DOCTYPE svg PUBLIC "-//W3C//DTD SVG 1.1//EN" "http://www.w3.org/Graphics/SVG/1.1/DTD/svg11.dtd"><svg t="1688714659212" class="icon" viewBox="0 0 1024 1024" version="1.1" xmlns="http://www.w3.org/2000/svg" p-id="3903" xmlns:xlink="http://www.w3.org/1999/xlink" width="256" height="256"><path d="M459.564 871.32c0-119.69-90.496-150.892-67.142-218.036s40.87-201.428-131.338-201.428c-172.206 0-154.692 134.286-131.338 201.428 23.354 67.142-67.144 98.346-67.144 218.036s108.668 151.874 198.48 151.874c89.816 0 198.482-32.184 198.482-151.874z" fill="#D476E2" p-id="3904"></path><path d="M261.084 983.194c-84.88 0-186.584-28.762-197.5-132.954-0.636 6.712-0.98 13.726-0.98 21.078 0 119.688 108.666 151.874 198.48 151.874 89.812 0 198.48-32.186 198.48-151.874 0-7.352-0.346-14.366-0.98-21.078-10.918 104.192-112.62 132.954-197.5 132.954z" fill="#B665C2" p-id="3905"></path><path d="M261.084 451.856c12.914 0 24.74 0.77 35.596 2.194l-12.374-373.382h-46.444l-12.374 373.382c10.856-1.424 22.682-2.194 35.596-2.194z" fill="#5A62C9" p-id="3906"></path><path d="M292.298 10.59L266.528 1.182a15.876 15.876 0 0 0-10.89 0l-25.77 9.408-7.328 79.978 24.414 12.19h28.26l24.414-12.19-7.33-79.978z" fill="#6770E6" p-id="3907"></path><path d="M255.362 11.182a17.476 17.476 0 0 1 11.442 0l26.388 9.168-0.894-9.762L266.528 1.18a15.876 15.876 0 0 0-10.89 0l-25.77 9.408-0.894 9.762 26.388-9.168z" fill="#8F95E6" p-id="3908"></path><path d="M261.084 673.142m-62.866 0a62.866 62.866 0 1 0 125.732 0 62.866 62.866 0 1 0-125.732 0Z" fill="#B665C2" p-id="3909"></path><path d="M340.294 874.312h-158.42a13.83 13.83 0 0 1 0-27.66h158.422a13.83 13.83 0 0 1 13.83 13.83 13.834 13.834 0 0 1-13.832 13.83zM235.016 19.958h-13.398a8.084 8.084 0 0 0-15.458 3.332 8.084 8.084 0 1 0 15.458 3.332h13.398V19.958zM233.016 45.724h-13.398a8.084 8.084 0 0 0-15.458 3.332 8.084 8.084 0 1 0 15.458 3.332h13.398v-6.664zM231.016 71.492h-13.398a8.084 8.084 0 0 0-15.458 3.332 8.084 8.084 0 1 0 15.458 3.332h13.398v-6.664zM287.152 19.958h13.398a8.084 8.084 0 0 1 15.458 3.332 8.084 8.084 0 1 1-15.458 3.332h-13.398V19.958zM289.152 45.724h13.398a8.084 8.084 0 0 1 15.458 3.332 8.084 8.084 0 1 1-15.458 3.332h-13.398v-6.664zM291.152 71.492h13.398a8.084 8.084 0 0 1 15.458 3.332 8.084 8.084 0 1 1-15.458 3.332h-13.398v-6.664z" fill="#6770E6" p-id="3910"></path><path d="M941.066 789.458a17.88 17.88 0 0 1-12.502-5.072l-179.844-174.608a17.952 17.952 0 0 1 25.008-25.76l179.844 174.608a17.952 17.952 0 0 1-12.506 30.832z" fill="#D476E2" p-id="3911"></path><path d="M763.812 624.434c2.27 15.52 2.872 33.246-2.948 44.886-12.38 24.762-31.752 94.674-31.752 162.766 0 68.092-72.394 78.338-77.61-1.818-5.358-82.364-8.968-370.968-15.99-445.492s-68.784-87.162-88.458-87.162c-30.624 0-73.04 24.788-73.04 67.408 0 39.762-34.118 41.764-45.586 15.736-1.136-2.578-4.612-3.03-6.416-0.866l-9.674 11.61a10.72 10.72 0 0 0-2.182 9.506c3.06 12.018 13.688 39.41 46.99 39.41 42.66 0 48.82-23.486 61.784-65.912 9.2-30.108 64.204-30.108 64.204 10.268 0 61.424-15.926 377.342-15.926 515.7s149.672 122.778 149.672 122.778 117.526 11.82 137.206-120.472c12.518-84.162 43.792-116.362 63.988-128.58l-154.262-149.766z" fill="#6770E6" p-id="3912"></path><path d="M575.378 608.38c3.68-89.842 7.09-168.762 7.36-199.9-1.078 41.896-4.196 117.568-7.36 199.9zM544.634 317.614c19.524 0 78.26 11.156 91.484 74.24-0.2-2.528-0.4-4.902-0.606-7.076-7.022-74.524-68.784-87.162-88.458-87.162-28.76 0-67.912 21.864-72.574 59.824 13.866-25.528 45.59-39.826 70.154-39.826z" fill="#8F95E6" p-id="3913"></path><path d="M721.336 983.254s-138.424 13.848-154.048-100.822c-0.052 6.288-0.082 12.332-0.082 18.044 0 138.358 149.672 122.778 149.672 122.778s117.526 11.818 137.206-120.472c0.2-1.348 0.42-2.646 0.63-3.968-34.86 93.954-133.378 84.44-133.378 84.44z" fill="#5A62C9" p-id="3914"></path><path d="M665.836 501.072a13.374 13.374 0 0 1-13.374-13.374v-13.292a13.374 13.374 0 0 1 26.748 0v13.292a13.374 13.374 0 0 1-13.374 13.374z" fill="#D476E2" p-id="3915"></path><path d="M661.714 493.254H632.6a11.932 11.932 0 1 1 0-23.864h29.114v23.864zM665.836 576.944a13.374 13.374 0 0 1-13.374-13.374v-13.294a13.374 13.374 0 0 1 26.748 0v13.294a13.374 13.374 0 0 1-13.374 13.374z" fill="#D476E2" p-id="3916"></path><path d="M661.714 569.126H632.6a11.932 11.932 0 1 1 0-23.864h29.114v23.864zM665.836 657.258a13.374 13.374 0 0 1-13.374-13.374v-13.294a13.374 13.374 0 0 1 26.748 0v13.294a13.374 13.374 0 0 1-13.374 13.374z" fill="#D476E2" p-id="3917"></path><path d="M661.714 649.44H632.6a11.932 11.932 0 1 1 0-23.864h29.114v23.864z" fill="#D476E2" p-id="3918"></path><path d="M954.148 284.788l-104.51 19.234a4.12 4.12 0 0 0-3.376 4.052v88.736c-7.41-4.39-17.144-5.838-26.896-3.226-17.506 4.686-28.432 20.666-24.402 35.692s21.488 23.406 38.994 18.718c15.556-4.164 25.906-17.246 25.194-30.652h0.044v-94.058l86.888-15.994v68.412c-7.41-4.39-17.144-5.838-26.896-3.226-17.506 4.686-28.432 20.666-24.402 35.692 4.03 15.026 21.488 23.406 38.994 18.718 15.298-4.096 25.57-16.816 25.23-29.986h0.01l0.002-108.06a4.128 4.128 0 0 0-4.874-4.052z" fill="#707AFA" p-id="3919"></path><path d="M748.586 137.422c-7.286-23.52-30.492-31.14-45.324-33.608a94.402 94.402 0 0 0-9.772-1.052 2.992 2.992 0 0 0-3.162 2.988v89.364c-7.41-4.39-17.144-5.838-26.898-3.226-17.506 4.686-28.432 20.666-24.402 35.692 4.03 15.026 21.488 23.406 38.994 18.718 15.556-4.164 25.906-17.246 25.194-30.65h0.046v-82.22c8.49 0.628 20.004 4.638 30.916 18.726 15.966 20.6 36.526 12.05 36.526 12.05-9.372 0-17.764-12.72-22.118-26.782z" fill="#D476E2" p-id="3920"></path></svg>