<?xml version="1.0" standalone="no"?><!DOCTYPE svg PUBLIC "-//W3C//DTD SVG 1.1//EN" "http://www.w3.org/Graphics/SVG/1.1/DTD/svg11.dtd"><svg t="1688714571429" class="icon" viewBox="0 0 1024 1024" version="1.1" xmlns="http://www.w3.org/2000/svg" p-id="3415" xmlns:xlink="http://www.w3.org/1999/xlink" width="256" height="256"><path d="M862.904 161.466s-7.616 1.884-18.772 0.018L195.8 809.816l15.82 2.564 2.564 15.82L862.698 179.686c-1.632-10.804 0.206-18.22 0.206-18.22z" fill="#EA82FA" p-id="3416"></path><path d="M883.214 218.14c-27.646-27.08-20.31-56.674-20.31-56.674s-28.658 7.138-56.306-19.942-25.408-70.658-4.288-92.22c21.12-21.562 39.57-33.688 112.49-27.834 25.606 2.056 45.598 5.316 58.332 7.814a25.006 25.006 0 0 1 19.642 19.238c2.762 12.68 6.434 32.598 9.02 58.158 7.364 72.784-4.376 91.48-25.498 113.044-21.118 21.56-65.434 25.494-93.082-1.584z" fill="#FF8354" p-id="3417"></path><path d="M804.904 86.658c22.342-22.81 41.83-35.668 118.614-29.824 26.964 2.052 48.006 5.398 61.408 7.972a26.09 26.09 0 0 1 12.068 5.81 463.724 463.724 0 0 0-4.218-22.096 25 25 0 0 0-19.642-19.238c-12.734-2.498-32.724-5.758-58.332-7.814-72.92-5.854-91.37 6.272-112.49 27.834-14.996 15.31-20.456 41.714-12.478 65.434 2.684-10.862 7.83-20.686 15.07-28.078z" fill="#FFAC8C" p-id="3418"></path><path d="M895.522 973.996c0 6.7-1.64 13.02-4.58 18.56-4.12 7.88-10.78 14.2-18.9 17.88a39.94 39.94 0 0 1-16.52 3.56c-12 0-22.72-5.3-30.06-13.66-9.78-9.68-31.68-35.2-41.34-77.82-2.42-10.68-4.06-22.42-4.56-35.26-0.08-2.06-0.12-4.14-0.14-6.22-0.4-42.6 12.2-88.5 37.42-136.54 27.58-55.88 41.58-116.12 41.58-179.06 0-223.42-181.78-405.18-405.18-405.18-61.1 0-119.78 13.24-174.42 39.36-50.82 26.64-99.12 39.1-143.72 37.1-1.78-0.08-3.56-0.18-5.32-0.3-14.24-1.02-27.06-3.44-38.5-6.74-38.66-11.04-61.4-31.78-69.34-40.1a39.83 39.83 0 0 1-11.94-28.48c0-3.86 0.54-7.6 1.58-11.12 2.52-8.8 8-16.34 15.28-21.5a39.62 39.62 0 0 1 23.14-7.38c12.16 0 23.02 5.44 30.36 14l0.04-0.06s-0.08-0.12-0.24-0.32c2.66 2.72 20.38 19.42 55.3 21.9 31.16 2.24 67.08-7.24 106.74-28.14l0.66-0.36c65.92-31.76 136.7-47.86 210.38-47.86 129.58 0 251.42 50.48 343.06 142.1 91.64 91.64 142.12 213.48 142.12 343.08 0 75.52-16.86 147.84-50.1 214.98l-0.46 0.9c-20 37.98-29.54 72.56-28.36 102.84 1.42 36.94 18.76 55.86 21.98 59.1-0.12-0.1-0.18-0.14-0.18-0.14l-0.16 0.18c8.78 7.34 14.38 18.36 14.38 30.7z" fill="#6770E6" p-id="3419"></path><path d="M11.582 169.976c2.52-8.8 8-16.34 15.28-21.5a39.62 39.62 0 0 1 23.14-7.38c12.16 0 23.02 5.44 30.36 14l0.04-0.06s-0.08-0.12-0.24-0.32c2.66 2.72 20.38 19.42 55.3 21.9 31.16 2.24 67.08-7.24 106.74-28.14l0.66-0.36c65.92-31.76 136.7-47.86 210.38-47.86 129.58 0 251.42 50.48 343.06 142.1 89.114 89.114 139.292 206.79 141.99 332.386 0.058-3.1 0.13-6.196 0.13-9.306 0-129.6-50.48-251.44-142.12-343.08-91.64-91.62-213.48-142.1-343.06-142.1-73.68 0-144.46 16.1-210.38 47.86l-0.66 0.36c-39.66 20.9-75.58 30.38-106.74 28.14-34.92-2.48-52.64-19.18-55.3-21.9 0.16 0.2 0.24 0.32 0.24 0.32l-0.04 0.06c-7.34-8.56-18.2-14-30.36-14-8.64 0-16.62 2.72-23.14 7.38a39.846 39.846 0 0 0-15.28 21.5c-1.04 3.52-1.58 7.26-1.58 11.12 0 3.446 0.484 6.77 1.304 9.958 0.094-0.358 0.172-0.724 0.276-1.078z" fill="#8F95E6" p-id="3420"></path><path d="M779.422 881.036l-644.32-644.32c-1.78-0.08-3.56-0.18-5.32-0.3-14.24-1.02-27.06-3.44-38.5-6.74l692.84 692.84c-2.42-10.68-4.06-22.42-4.56-35.26-0.08-2.06-0.12-4.14-0.14-6.22z" fill="#333399" p-id="3421"></path><path d="M211.622 812.38l-101.26-16.408L10 896.334l101.258 16.406L127.666 1014l100.362-100.362z" fill="#6770E6" p-id="3422"></path><path d="M223.384 884.986l-80.146 81.678-11.98-73.924L30 876.334l-20 20 101.258 16.406L127.666 1014l100.362-100.362z" fill="#333399" p-id="3423"></path></svg>