<?xml version="1.0" standalone="no"?><!DOCTYPE svg PUBLIC "-//W3C//DTD SVG 1.1//EN" "http://www.w3.org/Graphics/SVG/1.1/DTD/svg11.dtd"><svg t="1688713707393" class="icon" viewBox="0 0 1024 1024" version="1.1" xmlns="http://www.w3.org/2000/svg" p-id="2963" id="mx_n_1688713707395" width="256" height="256" xmlns:xlink="http://www.w3.org/1999/xlink"><path d="M511.99841 617.239263h-167.253481v104.837675h334.506962v-104.837675z" fill="#FFEFE4" p-id="2964"></path><path d="M1020.65683 985.34812h-103.07968l39.139879-197.289387s46.039857 6.007981 54.139832 66.529793c1.419996 10.473967 4.919985 70.71778 9.799969 130.759594z" fill="#2C2C85" p-id="2965"></path><path d="M1010.862861 854.580526c-8.095975-60.515812-54.137832-66.521793-54.137832-66.521793l-7.505977 37.817882 7.505977 2.781992s49.203847 6.005981 57.299822 66.521793l-3.16199-40.599874z" fill="#333399" p-id="2966"></path><path d="M106.41967 985.34812H3.33999c4.879985-60.041814 8.379974-120.283626 9.799969-130.757594 8.099975-60.521812 54.139832-66.529793 54.139832-66.529793l39.139879 197.287387z" fill="#2C2C85" p-id="2967"></path><path d="M383.846808 522.551557h256.303204v210.411347H383.846808z" fill="#FFE4D1" p-id="2968"></path><path d="M665.645933 83.346921c-6.52598-25.241922-34.381893-61.017811-139.939566-61.01781-163.081494 0-186.299421 24.149925-229.699286-17.557946-36.619886-35.189891-58.12182 134.165583-9.297971 187.951417-20.609936 76.175763-4.123987 152.469527-4.123988 152.469526h458.828576s38.50988-178.223447-75.767765-261.845187z" fill="#333399" p-id="2969"></path><path d="M296.005081 44.825041c43.399865 41.70787 66.619793 17.557945 229.699286 17.557945 105.557672 0 133.415586 35.775889 139.939566 61.017811 60.955811 44.601861 78.437756 116.115639 81.483747 173.145462 3.041991-58.927817-5.007984-157.241512-81.483747-213.201338-6.52598-25.241922-34.381893-61.017811-139.939566-61.01781-163.081494 0-186.299421 24.149925-229.699286-17.557946-24.003925-23.065928-41.509871 41.75387-36.973885 104.301676 3.35799-46.449856 18.171944-82.313744 36.973885-64.2458z" fill="#6770E6" p-id="2970"></path><path d="M328.916979 353.206083s-19.779939-36.235887-59.341816-36.235887-67.58179 173.92746 59.341816 144.93955v-108.703663zM695.079841 353.206083s19.779939-36.235887 59.341816-36.235887 67.58179 173.92746-59.341816 144.93955v-108.703663z" fill="#FFE4D1" p-id="2971"></path><path d="M511.99641 120.138807c-303.089059 0-245.137239 497.084456 0 497.084456 245.139239 0 303.091059-497.084456 0-497.084456z" fill="#FFEFE4" p-id="2972"></path><path d="M511.99841 93.078891S305.84105 63.996981 305.84105 328.51016c0 0 25.957919-109.32966 85.507735-139.145568 27.737914-13.887957 37.893882 21.293934 120.647625 21.293934 82.755743 0 92.911711-35.181891 120.647625-21.293934 59.551815 29.815907 85.507734 139.145568 85.507735 139.145568C718.15377 63.996981 511.99841 93.078891 511.99841 93.078891zM956.717029 788.058733l-39.139879 197.289387H106.41967l-39.139879-197.289387 251.799218-93.307711h385.838802z" fill="#333399" p-id="2973"></path><path d="M319.075009 735.354896h385.848802l244.295241 90.521719 7.505977-37.817882-251.801218-93.301711H319.075009L67.271791 788.058733l7.411977 37.341884z" fill="#6770E6" p-id="2974"></path><path d="M684.397875 985.34812A1151.574424 1151.574424 0 0 1 676.0979 1024h-328.19898a1152.642421 1152.642421 0 0 1-8.299975-38.65188h344.79893z" fill="#F2D9C7" p-id="2975"></path><path d="M733.557722 922.682315L710.457794 1024h-34.359894c3.039991-13.057959 5.799982-25.955919 8.299975-38.65188H339.598945A1151.574424 1151.574424 0 0 0 347.89892 1024h-35.159891l-23.099928-101.317685 29.439908-227.931293h385.038804l29.439909 227.931293z" fill="#FFE4D1" p-id="2976"></path><path d="M236.779265 985.34812l52.859836-62.665805-100.599688-23.271928a12.107962 12.107962 0 0 1-9.119972-14.297956c5.599983-26.595917 20.079938-94.047708 34.579893-151.607529l104.579675-38.75388s-11.179965 129.135599 20.519936 290.597098h-102.81968z" fill="#6770E6" p-id="2977"></path><path d="M203.679367 778.112764l113.507648-42.05787c0.223999-26.807917 1.887994-41.299872 1.887994-41.299872l-104.575675 38.74988a2871.163084 2871.163084 0 0 0-10.819967 44.607862z" fill="#8F95E6" p-id="2978"></path><path d="M511.99841 722.076938l-167.253481-104.837675-25.67192 77.515759s61.975808 125.753609 96.461701 147.435543C450.022602 863.874497 511.99841 722.076938 511.99841 722.076938z" fill="#FFEFE4" p-id="2979"></path><path d="M834.957407 899.410387l-100.599688 23.271928 52.859836 62.665805H684.397875c31.699902-161.459499 20.519936-290.597098 20.519936-290.597098l104.579675 38.75388c14.499955 57.559821 28.97991 125.009612 34.579893 151.607529a12.107962 12.107962 0 0 1-9.119972 14.297956z" fill="#6770E6" p-id="2980"></path><path d="M511.99841 722.076938l167.253481-104.837675 25.67192 77.515759s-61.975808 125.753609-96.461701 147.435543C573.974218 863.874497 511.99841 722.076938 511.99841 722.076938z" fill="#FFEFE4" p-id="2981"></path><path d="M430.204664 694.757022c-38.917879 0-37.577883 57.94182-37.577883 57.941821s-1.339996 57.94182 37.577883 57.94182c38.919879 0 81.793746-37.611883 81.793746-37.611884v-40.659873c0-0.002-42.873867-37.611883-81.793746-37.611884zM593.792156 694.757022c38.917879 0 37.577883 57.94182 37.577883 57.941821s1.339996 57.94182-37.577883 57.94182c-38.919879 0-81.793746-37.611883-81.793746-37.611884v-40.659873c0-0.002 42.873867-37.611883 81.793746-37.611884z" fill="#FF8354" p-id="2982"></path><path d="M481.420505 752.696843a30.619905 30.577905 90 1 0 61.15581 0 30.619905 30.577905 90 1 0-61.15581 0Z" fill="#2C2C85" p-id="2983"></path><path d="M491.606473 876.00846a20.419937 20.391937 90 1 0 40.783874 0 20.419937 20.391937 90 1 0-40.783874 0Z" fill="#2C2C85" p-id="2984"></path><path d="M491.606473 1003.572063a20.419937 20.391937 90 1 0 40.783874 0 20.419937 20.391937 90 1 0-40.783874 0Z" fill="#2C2C85" p-id="2985"></path><path d="M13.133959 854.580526c8.095975-60.515812 54.137832-66.521793 54.137832-66.521793l7.411977 37.341884-7.411977 3.25799s-49.203847 6.005981-57.299822 66.521793l3.16199-40.599874z" fill="#333399" p-id="2986"></path><path d="M820.317453 778.112764l-113.507648-42.05787c-0.223999-26.807917-1.887994-41.299872-1.887994-41.299872l104.575675 38.74988a2871.163084 2871.163084 0 0 1 10.819967 44.607862z" fill="#8F95E6" p-id="2987"></path><path d="M114.099646 1024H0c1.179996-12.535961 2.299993-25.575921 3.33999-38.65188h103.07968L114.099646 1024zM1023.99682 1024h-114.099646l7.679976-38.65188h103.07968c1.039997 13.075959 2.159993 26.115919 3.33999 38.65188z" fill="#2C2C85" p-id="2988"></path><path d="M819.817454 1024h-143.719554c3.039991-13.057959 5.799982-25.955919 8.299975-38.65188h102.81968L819.817454 1024zM347.89892 1024h-143.719554l32.599899-38.65188h102.81968A1152.642421 1152.642421 0 0 0 347.89892 1024z" fill="#5A62C9" p-id="2989"></path><path d="M106.41967 985.34812h130.359595L204.179366 1024H114.099646zM917.57715 985.34812L909.897174 1024h-90.07972l-32.599899-38.65188z" fill="#2C2C85" p-id="2990"></path></svg>