<?xml version="1.0" standalone="no"?><!DOCTYPE svg PUBLIC "-//W3C//DTD SVG 1.1//EN" "http://www.w3.org/Graphics/SVG/1.1/DTD/svg11.dtd"><svg t="1688713765706" class="icon" viewBox="0 0 1024 1024" version="1.1" xmlns="http://www.w3.org/2000/svg" p-id="3046" xmlns:xlink="http://www.w3.org/1999/xlink" width="256" height="256"><path d="M873.196 616.394C823.2 382.272 807.39 147.566 517.318 147.566H512c-290.072 0-305.882 234.706-355.878 468.828l-21.052 98.584a63.814 63.814 0 0 0 23.794 64.132l7.042 5.352c22.82 17.342 54.402 17.344 77.222 0l0.282-0.214c22.82-17.342 54.402-17.342 77.222 0l0.282 0.214c22.82 17.342 54.404 17.342 77.222 0l0.686-0.522c22.82-17.342 54.404-17.342 77.222 0l0.686 0.522c22.82 17.342 54.402 17.342 77.222 0l0.282-0.214c22.82-17.342 54.402-17.342 77.222 0l0.282 0.214c22.82 17.342 54.402 17.342 77.222 0 22.82-17.342 54.402-17.342 77.222 0 22.82 17.342 54.402 17.342 77.222 0l7.044-5.352a63.814 63.814 0 0 0 23.794-64.132l-21.046-98.584z" fill="#69EBFC" p-id="3047"></path><path d="M672.216 288.96H351.784V160.216C351.784 71.732 423.514 0 512 0s160.216 71.732 160.216 160.216v128.744z" fill="#2C2C85" p-id="3048"></path><path d="M512 0c-88.486 0-160.216 71.732-160.216 160.216v40C351.784 111.732 423.514 40 512 40c88.484 0 160.216 71.732 160.216 160.216v-40C672.216 71.732 600.486 0 512 0z" fill="#6770E6" p-id="3049"></path><path d="M438.414 95.242c-13.148 13.148-13.148 34.462 0 47.61l50.432 50.432 47.61-47.61-50.432-50.432c-13.148-13.148-34.464-13.148-47.61 0z" fill="#FFAC8C" p-id="3050"></path><path d="M438.4 115.24c13.146-13.146 34.462-13.146 47.61 0l40.434 40.434 10-10-50.436-50.434c-13.146-13.146-34.462-13.146-47.61 0-9.15 9.15-11.914 22.25-8.328 33.806a33.5 33.5 0 0 1 8.33-13.806z" fill="#FFC2AB" p-id="3051"></path><path d="M586.89 95.242c-13.148-13.148-34.462-13.148-47.61 0l-50.432 50.432 47.61 47.61 50.432-50.432c13.146-13.148 13.146-34.464 0-47.61z" fill="#FFAC8C" p-id="3052"></path><path d="M539.28 115.24c13.146-13.146 34.462-13.146 47.61 0a33.484 33.484 0 0 1 8.328 13.806c3.584-11.556 0.82-24.656-8.328-33.806-13.148-13.146-34.462-13.146-47.61 0l-50.434 50.434 10 10L539.28 115.24z" fill="#FFC2AB" p-id="3053"></path><path d="M512.652 64.49c-18.592 0-33.666 15.072-33.666 33.666v71.322h67.33V98.156c0-18.592-15.072-33.666-33.664-33.666z" fill="#FF8354" p-id="3054"></path><path d="M512.652 64.49c-18.592 0-33.666 15.072-33.666 33.666v20c0-18.592 15.072-33.666 33.666-33.666 18.592 0 33.666 15.072 33.666 33.666v-20c-0.002-18.592-15.074-33.666-33.666-33.666z" fill="#FFAC8C" p-id="3055"></path><path d="M407.664 169.478c0 18.592 15.072 33.666 33.666 33.666h71.322V135.814h-71.322c-18.594 0-33.666 15.072-33.666 33.664z" fill="#FF8354" p-id="3056"></path><path d="M617.64 169.478c0-18.592-15.072-33.666-33.666-33.666h-71.322v67.33h71.322c18.594 0.002 33.666-15.07 33.666-33.664z" fill="#FF8354" p-id="3057"></path><path d="M512.652 169.478m-48.01 0a48.01 48.01 0 1 0 96.02 0 48.01 48.01 0 1 0-96.02 0Z" fill="#6770E6" p-id="3058"></path><path d="M511.998 147.566c-315.036 0-244.87 324.27-244.87 324.27h489.742S827.036 147.566 511.998 147.566z" fill="#333399" p-id="3059"></path><path d="M328.918 469.608s-19.78-36.186-59.342-36.186-67.582 173.692 59.342 144.742v-108.556zM695.082 469.608s19.78-36.186 59.342-36.186 67.582 173.692-59.342 144.742v-108.556zM618.292 800.162v-194.748H405.708v194.748a20.68 20.68 0 0 1-14.726 19.806L82.804 912.634C33.65 927.416 0 972.672 0 1024h1024c0-51.328-33.65-96.584-82.804-111.366l-308.178-92.668a20.68 20.68 0 0 1-14.726-19.804z" fill="#FFE4D1" p-id="3060"></path><path d="M7.108 984A116.092 116.092 0 0 0 0 1024h1024a116.044 116.044 0 0 0-7.108-40H7.108z" fill="#F2D9C7" p-id="3061"></path><path d="M800.752 942.474c-20.278-70.344-44.482-108.484-46.122-111.02-11.594-17.916-35.52-23.036-53.432-11.446-17.868 11.562-23.01 35.39-11.538 53.29 0.22 0.35 6.396 10.254 14.71 28.982-4.36-0.26-8.804-0.434-13.42-0.434C552.898 901.846 512 1004 512 1004s-39.056-97.492-169.594-101.976c8.258-18.56 14.376-28.376 14.596-28.724 11.474-17.898 6.33-41.726-11.538-53.29-17.912-11.59-41.836-6.47-53.432 11.446-1.458 2.25-20.704 32.606-39.196 88.622-40.704 22.216-61.254 62.008-71.088 103.922h660.506c-7.09-30.208-19.754-59.302-41.502-81.526z" fill="#FFF9F5" p-id="3062"></path><path d="M523.162 984c-7.866 11.776-11.162 20-11.162 20s-3.302-8.226-11.17-20H195.222c-5.862 12.744-10.25 26.254-13.476 40h660.506c-3.226-13.748-7.624-27.256-13.49-40h-305.6zM512 236.858c-303.09 0-245.138 496.406 0 496.406 245.14 0 303.092-496.406 0-496.406z" fill="#FFEFE4" p-id="3063"></path><path d="M305.842 444.946s93.238 12.096 184.94-57.032 91.716-106.488 91.716-106.488 8.45 57.11 53.596 102.256 82.064 61.264 82.064 61.264l12.458-45.746-53.61-162.342L512 197.458l-183.082 84.648-30.002 151.318 6.926 11.522z" fill="#333399" p-id="3064"></path></svg>